<svg width="173" height="52" fill="none" xmlns="http://www.w3.org/2000/svg"><path d="M53.078 23.883H42.161v3.634h10.917v-3.634ZM53.078 31.151H42.161v19.364h35.657v-9.918h-24.74v-9.446ZM53.078.9H42.161v19.349h10.917V.899ZM111.34.55h-10.06l-8.383 19.692h26.825L111.34.55ZM88.256 31.151 80.01 50.515h11.13l4.542-11.124h20.977l4.541 11.124h11.41l-8.24-19.364H88.256ZM121.278 23.883h-29.93l-1.542 3.634h33.015l-1.543-3.634ZM146.49 25.69a6.81 6.81 0 0 0 6.811 6.81 6.81 6.81 0 0 0 6.811-6.81 6.81 6.81 0 0 0-6.811-6.812c-3.763-.007-6.811 3.049-6.811 6.811ZM137.743 27.517c-.071-.6-.107-1.2-.107-1.806 0-.621.05-1.228.114-1.828h-10.117a30.775 30.775 0 0 0-.071 1.828c0 .607.021 1.214.071 1.806h10.11ZM153.265 10.082c5.041 0 9.504 2.399 12.359 6.097l6.683-7.732C167.609 3.263 160.812 0 153.265 0c-12.323 0-22.612 8.668-25.125 20.242h10.496c2.227-5.934 7.925-10.16 14.629-10.16ZM165.839 34.964c-2.842 3.856-7.412 6.369-12.567 6.369-6.711 0-12.416-4.234-14.636-10.182h-10.489c2.506 11.581 12.788 20.263 25.125 20.263 7.926 0 15.009-3.59 19.728-9.231l-7.161-7.219ZM21.363 20.242c-6.762-1.828-8.54-2.985-8.54-6.034 0-2.463 2.207-4.383 6.383-4.383 4.192 0 8.511 1.842 12.91 4.89l5.668-8.225C32.744 2.45 26.59.178 19.356.178 9.218.186 1.985 6.162 1.985 15.208c0 1.978.25 3.613.707 5.034h18.67ZM20.991 31.151c6.084 1.764 7.433 3.17 7.433 5.69 0 2.978-2.692 4.742-7.154 4.742-5.67 0-10.353-2.342-14.816-6.02L0 43.29c5.948 5.32 13.537 7.947 21.056 7.947 10.695 0 18.22-5.533 18.22-15.458 0-1.77-.228-3.277-.656-4.62H20.99v-.007ZM4.677 23.883c1.25 1.507 2.92 2.663 4.948 3.634h27.01c-1.171-1.435-2.728-2.62-4.641-3.634H4.677Z" fill="#DAD7CB"/></svg>
