<svg id="slac_xray_a_icon" xmlns="http://www.w3.org/2000/svg" width="512" height="514" viewBox="0 0 512 514"><path fill="#B1040E" d="M257.44,13c-134.21,0-243,108.8-243,243s108.79,243,243,243,243-108.79,243-243S391.64,13,257.44,13Zm0,11.91a230.07,230.07,0,0,1,138.3,45.93c1,17.91,6.21,39.83,12.92,63.45-.38.2-.76.36-1.14.58A35.49,35.49,0,0,0,416,199.94a35.92,35.92,0,0,0,9.27,1.25c1.05,0,2.09-.11,3.13-.2,11.39,40.39,19.53,79.86,4.55,88.45-19.16,10.95-63-35.93-98.18-73.63-44.43-47.56-86.38-92.52-114.9-76.15-23.31,13.37-15.64,55.15-1.77,104-.43.23-.87.42-1.3.66a35.54,35.54,0,0,0,17.73,66.32c1.11,0,2.22-.11,3.32-.21,11.39,40.37,19.5,79.78,4.53,88.37-19.15,11-63-35.93-98.17-73.63C99.76,277.58,57.79,232.63,29.29,249a26,26,0,0,0-2.82,2C29.14,125.69,131.49,24.91,257.44,24.91Zm0,462.18c-118.56,0-216.2-89.29-229.5-204.28,0-10.8,2.35-18.73,8.13-22.05,19.14-10.95,63,35.93,98.18,73.64,44.43,47.57,86.39,92.52,114.9,76.15,23.31-13.38,15.64-55.17,1.77-104,.44-.23.91-.41,1.35-.66a35.49,35.49,0,0,0-21.11-66.11c-11.38-40.36-19.48-79.76-4.52-88.35,19.13-11,63,35.93,98.18,73.64,44.43,47.57,86.41,92.51,114.9,76.14,23.32-13.37,15.64-55.17,1.77-104,.5-.26,1-.46,1.51-.75A35.53,35.53,0,0,0,456.12,148h0a35.63,35.63,0,0,0-34.4-17.6c-4.67-16.61-8.74-33-10.93-47.17A230.45,230.45,0,0,1,488.53,256C488.53,383.63,385.07,487.09,257.44,487.09Z"/></svg>
